PathFileType	4	(X/Y/Z)	Patient4_TMGait_0pt2_01_left_10.trc.trc
DataRate	CameraRate	NumFrames	NumMarkers	Units	OrigDataRate	OrigDataStartFrame	OrigNumFrames
41.666666666667	41.666666666667	4	33	mm	41.666666666667	1	       141
Frame#	Time	Sacral			L.Shoulder			Chest			R.Shoulder			Neck			R.ASIS			L.ASIS			R.Thigh.Superior			R.Thigh.Lateral			R.Thigh.Inferior			R.Patella			L.Thigh.Superior			L.Thigh.Lateral			L.Thigh.Inferior			L.Patella			L.Shank.Superior			L.Shank.Lateral			L.Shank.Inferior			R.Shank.Superior			R.Shank.Lateral			R.Shank.Inferior			R.Heel			R.Midfoot.Superior			R.Midfoot.Lateral			R.Toe			L.Heel			L.Midfoot.Lateral			L.Midfoot.Superior			L.Toe			L.Elbow			L.Wrist			R.Elbow			R.Wrist			
		X1	Y1	Z1	X2	Y2	Z2	X3	Y3	Z3	X4	Y4	Z4	X5	Y5	Z5	X6	Y6	Z6	X7	Y7	Z7	X8	Y8	Z8	X9	Y9	Z9	X10	Y10	Z10	X11	Y11	Z11	X12	Y12	Z12	X13	Y13	Z13	X14	Y14	Z14	X15	Y15	Z15	X16	Y16	Z16	X17	Y17	Z17	X18	Y18	Z18	X19	Y19	Z19	X20	Y20	Z20	X21	Y21	Z21	X22	Y22	Z22	X23	Y23	Z23	X24	Y24	Z24	X25	Y25	Z25	X26	Y26	Z26	X27	Y27	Z27	X28	Y28	Z28	X29	Y29	Z29	X30	Y30	Z30	X31	Y31	Z31	X32	Y32	Z32	X33	Y33	Z33	

1	22.220000000000	793.319303335723	992.230270124045	567.201891380180	958.320390755950	1420.435969969662	376.424980680462	1058.606248918651	1361.963620733270	542.801674083965	966.739289802865	1434.026037936781	712.903334068187	933.141406878560	1486.460573335381	532.723530882722	1025.401244593649	938.830106450253	690.477087080969	1014.747546461892	952.438144663785	414.916696119940	1072.613578590312	738.720371323254	646.243127439989	995.448900139807	620.281930951592	699.077772208478	1070.790625759910	576.156790705055	613.316683772079	1072.545190700354	483.108665173289	613.461606000166	1074.005625078669	744.886214934620	438.459512574799	1005.863460724352	625.912613443089	358.868199811773	1096.307246162261	547.522924380743	419.373037187264	1093.887449270998	459.833045276278	408.225735713368	1024.020550838713	401.642552445212	395.756867650549	881.552564367958	364.649183162657	344.788949445730	868.673068715823	231.244852124291	390.222009531963	1034.449197484470	394.256148823645	613.275739980501	955.804949112591	292.892007624374	671.785987357222	983.732615106846	200.602475353060	599.353468258180	833.812317084944	43.237375145279	565.552492001924	1007.156862789825	96.741324387448	597.628092769817	919.300611396588	36.949344909634	637.646394697682	1127.242807089642	44.063319550138	620.345032331869	676.487774082816	155.852805840059	424.049889591433	735.799251868973	124.911941019020	338.514089475514	840.938577648950	138.353422440937	359.553651321189	926.272575411369	36.912418419929	316.514138259945	984.519003187865	1067.017294699588	256.857667081430	1174.204068824736	884.194139029446	268.620899819483	966.535661199132	1086.715381511744	848.516597877914	1086.362628192615	852.010776647781	868.130454406483	
2	22.244000000000	791.488754888251	989.575001523196	572.183145467852	952.758211772712	1417.959066526536	378.335369929662	1056.275780920784	1359.663721357320	542.690348493170	967.995876038486	1431.810017112908	714.554906089825	931.079161781225	1484.427521460286	534.728375695998	1025.235546299992	936.738377363441	691.330163240981	1009.663793766419	950.704023447876	416.490138655953	1073.220657715556	737.237325979842	645.681508938880	998.011021427588	618.028682401479	698.646196140394	1072.287815296947	574.811696917993	611.575052637564	1074.592332129017	481.085939551358	611.289958703522	1075.665316873474	748.202128595412	440.356512336148	1011.666353394191	626.946473293134	361.032220586293	1104.940804793438	552.074979595882	421.665491373317	1105.404668001792	464.199906833561	410.191343205636	1036.511853267595	404.435126053049	397.094047683972	894.032831666605	365.525428354145	347.107818473440	884.108640594329	231.293949416256	390.831752896950	1035.078700051663	392.270224629792	611.610415690858	955.561581091547	291.800434969516	670.492010552808	981.313880408486	199.407513664345	598.173087292653	829.191373447699	43.255448957355	565.505624397232	1002.605148900270	96.609329709878	597.241967282792	914.686482662624	37.009979280845	637.568798467187	1122.672742294414	43.739445998053	620.295137792232	693.783584446569	151.918588188978	425.889461836640	752.521771452801	123.369495829908	339.153268667127	857.587457791001	138.367861818841	359.244955592405	944.086851396581	39.157102177455	313.540945290086	965.194455367522	1062.414392367584	264.827839519187	1129.732634992375	863.709616427896	276.062294502484	986.156566023942	1086.397144619512	850.049035145531	1122.812904409991	863.518368364150	866.005444087998	
3	22.268000000000	789.593745574552	987.136410724527	577.339220317188	946.926164974497	1415.621554490515	380.308546771625	1053.893589816472	1357.490330128375	542.438867091526	969.512736653495	1429.776312936424	716.140320010074	928.983788315263	1482.525064799996	536.766583232245	1025.090384226013	934.728405657549	692.068031687269	1004.429174336664	949.212505343057	417.974774650077	1073.615260181656	735.755103275863	645.034936191493	1000.295987038414	615.852144573640	698.221222193671	1073.427796252027	573.477593555757	609.803009441452	1076.214945514332	479.104583206766	609.118383373711	1077.034830323637	751.718832524305	442.317036447406	1017.377588381246	628.366859723916	363.139008301123	1113.210539425886	556.877795352656	424.060554576521	1116.715495844657	468.989170784056	412.202516705828	1049.191250186459	407.535753843286	398.362343470343	907.180451299282	365.874559605620	349.121402676487	901.013601893833	230.906934612771	391.141494738595	1035.302205684934	390.342364221979	609.960762953955	954.987536535331	290.751894567984	669.275122619843	978.594431346181	198.253211063758	597.036239590668	824.351757575025	43.275549230304	565.463541272357	997.823309129107	96.482124056057	596.872469307520	909.843282391424	37.066283651998	637.498584913003	1117.870636937809	43.411395371886	620.239711342747	713.248224817794	146.503772170996	427.132826365437	771.612593990631	120.670427681965	339.308053639135	876.381460320754	137.831713286949	358.619210844599	964.595592770725	41.444103633108	310.446185184941	945.024838542028	1058.255322465519	272.904158828162	1083.295904425347	844.282830768559	283.892334633316	1006.699650225649	1086.764799536295	851.364401220184	1160.720251751588	877.090519920279	863.087377315365	
4	22.292000000000	787.699041532649	985.109385537026	582.505157254132	940.987910590921	1413.592558194176	382.284663585351	1051.548466735336	1355.589991007178	542.006304191174	971.324718782059	1428.087979392803	717.558621686147	926.943295872152	1480.893672732422	538.765424199567	1024.972000830228	932.929056396827	692.623913887659	999.215177348907	948.118045137486	419.280436663251	1073.681923401383	734.345210587625	644.322869361507	1002.064367885614	613.886681468574	697.841320197882	1074.000421662315	572.221776193571	608.096090585635	1077.150298437186	477.273853587112	607.074072628651	1077.914840662368	755.329445322071	444.243264357455	1022.580807371779	630.174841675629	365.067354381298	1120.562484909977	561.786983563777	426.419850217776	1127.184703818846	474.139044224828	414.132761623884	1061.521349130754	410.929918200000	399.447803948308	920.669297896256	365.498719493483	350.598264939898	919.201136606435	230.000435372022	391.018264413342	1034.930127057148	388.587218397874	608.429202432498	953.950431816699	289.812839160288	668.228670244894	975.557640657760	197.211779248430	596.018779512112	819.396888214745	43.305355918784	565.434813624463	992.917226618911	96.367010212826	596.546618437933	904.878719038813	37.116190451929	637.443250298648	1112.940535510691	43.088408114226	620.181692374012	734.885719585746	139.415556900885	427.517408749594	793.165939590370	116.584591522326	338.812633443867	897.331232589936	136.623005577972	357.593469317997	987.907303118568	43.723622833305	307.364987657376	924.502257036289	1054.953844073457	280.769361087765	1036.256513175916	827.200888456745	291.916233584589	1027.634013711799	1088.091316891463	852.284809537907	1198.915017311348	893.032888783435	859.125307809894	
